<svg width="28" height="28" viewBox="0 0 28 28" fill="none" xmlns="http://www.w3.org/2000/svg">
<path d="M14 28C12.0734 28 10.2586 27.6316 8.55556 26.8948C6.85248 26.1577 5.36926 25.1575 4.10589 23.8941C2.84252 22.6307 1.8423 21.1475 1.10522 19.4444C0.368407 17.7414 0 15.9266 0 14C0 12.0675 0.368407 10.2511 1.10522 8.55089C1.8423 6.85093 2.84252 5.36926 4.10589 4.10589C5.36926 2.84252 6.85248 1.8423 8.55556 1.10522C10.2586 0.368407 12.0734 0 14 0C15.9325 0 17.7489 0.368407 19.4491 1.10522C21.1491 1.8423 22.6307 2.84252 23.8941 4.10589C25.1575 5.36926 26.1577 6.85093 26.8948 8.55089C27.6316 10.2511 28 12.0675 28 14C28 15.9266 27.6316 17.7414 26.8948 19.4444C26.1577 21.1475 25.1575 22.6307 23.8941 23.8941C22.6307 25.1575 21.1491 26.1577 19.4491 26.8948C17.7489 27.6316 15.9325 28 14 28ZM14 26.4565C14.9134 25.2839 15.6663 24.1321 16.2587 23.0012C16.8508 21.8706 17.3324 20.6053 17.7034 19.2053H10.2966C10.7075 20.6849 11.1991 21.9901 11.7713 23.121C12.3437 24.2516 13.0866 25.3635 14 26.4565ZM12.0198 26.2232C11.2939 25.3676 10.6312 24.3101 10.0318 23.0506C9.43263 21.7911 8.98645 20.5094 8.69322 19.2053H2.72806C3.61965 21.1396 4.88354 22.726 6.51972 23.9645C8.15617 25.203 9.98952 25.9559 12.0198 26.2232ZM15.9802 26.2232C18.0105 25.9559 19.8438 25.203 21.4803 23.9645C23.1165 22.726 24.3804 21.1396 25.2719 19.2053H19.3068C18.914 20.5293 18.4179 21.8211 17.8185 23.0806C17.2194 24.34 16.6066 25.3876 15.9802 26.2232ZM2.09417 17.6497H8.37006C8.25235 17.0114 8.16913 16.3896 8.12039 15.7842C8.07139 15.1791 8.04689 14.5844 8.04689 14C8.04689 13.4156 8.07139 12.8209 8.12039 12.2158C8.16913 11.6104 8.25235 10.9886 8.37006 10.3503H2.09417C1.92461 10.8888 1.79239 11.4756 1.6975 12.1108C1.60287 12.746 1.55556 13.3757 1.55556 14C1.55556 14.6243 1.60287 15.254 1.6975 15.8892C1.79239 16.5244 1.92461 17.1112 2.09417 17.6497ZM9.92561 17.6497H18.0744C18.1921 17.0114 18.2753 16.3996 18.3241 15.8142C18.3731 15.229 18.3976 14.6243 18.3976 14C18.3976 13.3757 18.3731 12.771 18.3241 12.1858C18.2753 11.6004 18.1921 10.9886 18.0744 10.3503H9.92561C9.80791 10.9886 9.72469 11.6004 9.67594 12.1858C9.62694 12.771 9.60245 13.3757 9.60245 14C9.60245 14.6243 9.62694 15.229 9.67594 15.8142C9.72469 16.3996 9.80791 17.0114 9.92561 17.6497ZM19.6299 17.6497H25.9058C26.0754 17.1112 26.2076 16.5244 26.3025 15.8892C26.3971 15.254 26.4444 14.6243 26.4444 14C26.4444 13.3757 26.3971 12.746 26.3025 12.1108C26.2076 11.4756 26.0754 10.8888 25.9058 10.3503H19.6299C19.7476 10.9886 19.8309 11.6104 19.8796 12.2158C19.9286 12.8209 19.9531 13.4156 19.9531 14C19.9531 14.5844 19.9286 15.1791 19.8796 15.7842C19.8309 16.3896 19.7476 17.0114 19.6299 17.6497ZM19.3068 8.79472H25.2719C24.3604 6.82046 23.1114 5.23406 21.525 4.0355C19.9386 2.83695 18.0903 2.07407 15.9802 1.74689C16.7061 2.70226 17.3588 3.79465 17.9383 5.02406C18.5177 6.25372 18.9739 7.51061 19.3068 8.79472ZM10.2966 8.79472H17.7034C17.2925 7.33509 16.7859 6.01494 16.1836 4.83428C15.5814 3.65361 14.8535 2.55669 14 1.5435C13.1465 2.55669 12.4186 3.65361 11.8164 4.83428C11.2141 6.01494 10.7075 7.33509 10.2966 8.79472ZM2.72806 8.79472H8.69322C9.02611 7.51061 9.48228 6.25372 10.0617 5.02406C10.6412 3.79465 11.2939 2.70226 12.0198 1.74689C9.8897 2.07407 8.03652 2.84187 6.46022 4.05028C4.88367 5.25895 3.63961 6.84043 2.72806 8.79472Z" fill="#3F516F"/>
</svg>
