<svg width="64" height="26" viewBox="0 0 64 26" fill="none" xmlns="http://www.w3.org/2000/svg">
<path d="M13.0577 25.4886C10.9684 25.4886 9.11723 25.1983 7.5038 24.6181C5.89037 24.0375 4.52665 23.2019 3.4124 22.111C2.29814 21.0199 1.45077 19.685 0.870511 18.1066C0.290253 16.528 0 14.7405 0 12.7443C0 10.7478 0.290253 8.96029 0.870511 7.38193C1.45077 5.80332 2.29814 4.46846 3.4124 3.37759C4.52665 2.28646 5.89037 1.45077 7.5038 0.870511C9.11723 0.290005 10.9684 0 13.0577 0C15.1469 0 16.9981 0.290005 18.6115 0.870511C20.225 1.45077 21.5887 2.28646 22.7029 3.37759C23.8172 4.46846 24.6646 5.80332 25.2448 7.38193C25.8251 8.96029 26.1153 10.7478 26.1153 12.7443C26.1153 14.7405 25.8251 16.528 25.2448 18.1066C24.6646 19.685 23.8172 21.0199 22.7029 22.111C21.5887 23.2019 20.225 24.0375 18.6115 24.6181C16.9981 25.1983 15.1469 25.4886 13.0577 25.4886ZM13.0577 17.2013C14.0792 17.2013 14.8857 16.8066 15.4777 16.0174C16.0696 15.228 16.3656 14.1371 16.3656 12.7443C16.3656 11.3515 16.0696 10.2603 15.4777 9.47117C14.8857 8.68174 14.0792 8.28727 13.0577 8.28727C12.0362 8.28727 11.2296 8.68174 10.6376 9.47117C10.0457 10.2603 9.74973 11.3515 9.74973 12.7443C9.74973 14.1371 10.0457 15.228 10.6376 16.0174C11.2296 16.8066 12.0362 17.2013 13.0577 17.2013Z" fill="#3F516F"/>
<path d="M40.0783 25.4886C36.1319 25.4886 33.1374 24.531 31.0947 22.6159C29.0519 20.7008 28.0305 17.7467 28.0305 13.7541V5.04896C28.0305 3.53999 28.4426 2.34441 29.2666 1.46246C30.0906 0.580256 31.3267 0.139278 32.975 0.139278C34.6929 0.139278 35.9578 0.580256 36.7704 1.46246C37.583 2.34441 37.9891 3.53999 37.9891 5.04896V14.2067C37.9891 16.2263 38.6276 17.2361 39.9042 17.2361C41.1809 17.2361 41.8194 16.2263 41.8194 14.2067V5.04896C41.8194 3.53999 42.2198 2.34441 43.0207 1.46246C43.8215 0.580256 45.0577 0.139278 46.7291 0.139278C48.4004 0.139278 49.6597 0.580256 50.5071 1.46246C51.3545 2.34441 51.778 3.53999 51.778 5.04896V13.7541C51.778 17.7467 50.7508 20.7008 48.6964 22.6159C46.642 24.531 43.7693 25.4886 40.0783 25.4886Z" fill="#3F516F"/>
<path d="M59.0207 25.3145C57.3493 25.3145 56.1015 24.8675 55.2775 23.9739C54.4535 23.08 54.0413 21.8787 54.0413 20.37V5.04896C54.0413 3.53999 54.4535 2.34441 55.2775 1.46246C56.1015 0.580256 57.3493 0.139278 59.0207 0.139278C60.692 0.139278 61.9399 0.580256 62.7639 1.46246C63.5879 2.34441 64 3.53999 64 5.04896V20.37C64 21.8787 63.5879 23.08 62.7639 23.9739C61.9399 24.8675 60.692 25.3145 59.0207 25.3145Z" fill="#3F516F"/>
</svg>
