<svg width="122" height="76" viewBox="0 0 122 76" fill="none" xmlns="http://www.w3.org/2000/svg">
<path d="M100.809 50.2929C99.6087 49.0129 99.0487 46.2928 99.0487 43.6528C99.0487 41.1728 99.5287 38.6928 100.409 37.3328C100.489 36.9328 101.289 36.8528 102.249 37.0928C103.129 37.4128 103.609 38.0528 103.529 38.4528C102.889 39.0928 101.289 48.1329 102.489 49.1728C103.129 49.6528 103.929 49.8929 104.809 49.8929C109.769 49.8929 118.249 43.4928 120.649 41.0928C120.969 40.7728 121.769 41.2528 120.809 43.0128C119.289 45.8128 112.009 52.1328 106.489 52.3728C104.489 52.4528 102.329 51.9729 100.809 50.2929ZM102.489 31.7328C101.529 31.4128 101.049 30.6928 101.449 30.3728C101.609 30.1328 102.169 28.5328 102.329 28.1328L102.489 26.9328C102.489 26.4528 103.369 26.2928 104.169 26.6128C105.209 26.8528 105.849 27.4928 105.689 27.8929C105.689 28.2128 105.689 28.7728 105.449 29.2528C105.289 29.6528 104.649 31.4128 104.409 31.8128C104.169 32.1328 103.209 32.1328 102.489 31.7328Z" fill="#AB433A"/>
<path d="M75.6906 51.9729C73.0506 51.9729 70.3306 49.8929 69.4506 47.1729C69.1306 46.2129 68.9706 45.1729 68.9706 44.1329C68.9706 42.8529 69.2106 41.4929 69.8506 40.3729C70.2506 39.5729 70.7306 38.8529 71.4506 38.6129C72.0906 38.4529 72.9706 38.8529 73.6106 39.5729C74.2506 40.2129 74.0906 40.6929 73.6906 40.9329C72.5706 41.6529 71.8506 43.9729 71.8506 46.0529C71.8506 47.4929 72.1706 48.7729 73.0506 49.3329C76.3306 51.5729 81.6906 43.0929 82.3306 40.2129C82.5706 39.0929 85.3706 40.5329 85.2106 41.7329C85.1306 42.2929 85.0506 43.5729 85.0506 45.0129C85.3706 46.9329 85.9306 48.8529 88.1706 49.0929C93.6906 48.8529 98.4906 44.6129 101.131 41.9729C101.851 41.0129 101.771 43.4129 100.811 44.9329C99.2106 47.4129 95.1306 51.7329 89.6106 51.4129C86.4906 51.4129 84.0106 49.4929 82.8906 46.8529C81.2906 49.1729 78.9706 51.9729 75.6906 51.9729Z" fill="#AB433A"/>
<path d="M23.92 74.6129V74.5329C18.24 72.2929 14.32 68.1329 11.76 63.0929C8.72 57.3329 7.68 50.3729 7.68 43.7329V42.4529L6.96 41.8129C5.52 39.9729 4.16 37.8929 2.96 35.5729C2.72 34.7729 2.24 34.0529 1.92 33.1729C0.56 29.8929 0 26.6929 0 23.6529C0 10.8529 10.72 0.852851 23.68 0.0528521C44.24 -1.06715 52.64 15.8129 54.8 31.7329C54.88 33.1729 54.96 34.8529 54.96 36.6129C54.96 40.2929 54.72 44.4529 54 47.4929L53.6 49.0129L54.64 48.8529C60.48 47.3329 68.8 44.0529 71.92 42.1329C73.12 41.4129 71.2 44.6129 69.44 45.8929C65.84 48.0529 61.12 50.5329 54.08 52.2129L52.8 52.5329L52.48 53.8129C51.28 57.5729 49.44 60.6129 47.36 63.6529C43.12 70.1329 37.12 75.0929 29.84 75.3329C27.92 75.3329 26.08 75.0929 23.92 74.6129ZM50.16 49.8129L50.72 48.1329C51.52 44.9329 51.92 40.5329 51.92 36.5329C51.92 34.5329 51.84 32.6129 51.6 31.0129C50 16.2929 43.04 1.57285 24.56 2.45286C13.04 3.01285 2.8 12.5329 2.8 24.6129C2.8 27.4129 3.36 30.3729 4.56 33.4129C5.36 35.0929 6.24 36.6929 7.12 38.2129L7.84 39.1729L7.92 38.6929C8.48 32.9329 9.76 27.4129 11.76 23.1729C13.92 18.3729 17.12 14.6129 21.2 14.2929C21.92 14.2129 22.72 14.6929 23.12 15.3329C23.6 15.8929 23.28 16.6129 22.4 16.6129C19.52 16.9329 16.64 19.7329 14.48 24.6929C12.16 29.4129 10.96 35.6529 10.64 42.1329V42.4529L11.84 43.7329C18.16 49.4129 27.12 51.3329 35.6 51.3329C36.4 51.4129 37.28 51.4129 38.16 51.4129C42.32 51.2529 46.48 50.6129 50.16 49.8129ZM44.72 62.0529C46.16 60.0529 47.2 57.8129 48.24 55.4929L49.2 53.3329L46.8 53.5729C44.48 53.9729 41.76 54.2129 39.28 54.2929C38.32 54.3729 37.52 54.3729 36.64 54.2929C29.84 54.2929 22.64 52.5329 16.4 49.1729C14.4 48.2129 12.4 47.0129 10.8 45.5729L10.56 45.3329L10.72 47.1729C10.8 53.0129 12.24 58.4529 14.48 62.9329C16.56 67.0129 19.44 70.2929 23.28 72.0529L24.16 72.3729C25.6 72.7729 27.12 73.0129 28.72 72.9329C34.72 72.7729 40.48 68.6129 44.72 62.0529Z" fill="#AB433A"/>
</svg>
