<svg width="89" height="56" viewBox="0 0 89 56" fill="none" xmlns="http://www.w3.org/2000/svg">
<path d="M73.7244 37.448C72.8544 36.52 72.4484 34.548 72.4484 32.634C72.4484 30.836 72.7964 29.038 73.4344 28.052C73.4924 27.762 74.0724 27.704 74.7684 27.878C75.4064 28.11 75.7544 28.574 75.6964 28.864C75.2324 29.328 74.0724 35.882 74.9424 36.636C75.4064 36.984 75.9864 37.158 76.6244 37.158C80.2204 37.158 86.3684 32.518 88.1084 30.778C88.3404 30.546 88.9204 30.894 88.2244 32.17C87.1224 34.2 81.8444 38.782 77.8424 38.956C76.3924 39.014 74.8264 38.666 73.7244 37.448ZM74.9424 23.992C74.2464 23.76 73.8984 23.238 74.1884 23.006C74.3044 22.832 74.7104 21.672 74.8264 21.382L74.9424 20.512C74.9424 20.164 75.5804 20.048 76.1604 20.28C76.9144 20.454 77.3784 20.918 77.2624 21.208C77.2624 21.44 77.2624 21.846 77.0884 22.194C76.9724 22.484 76.5084 23.76 76.3344 24.05C76.1604 24.282 75.4644 24.282 74.9424 23.992Z" fill="black"/>
<path d="M55.5137 38.666C53.5997 38.666 51.6277 37.158 50.9897 35.186C50.7577 34.49 50.6417 33.736 50.6417 32.982C50.6417 32.054 50.8157 31.068 51.2797 30.256C51.5697 29.676 51.9177 29.154 52.4397 28.98C52.9037 28.864 53.5417 29.154 54.0057 29.676C54.4697 30.14 54.3537 30.488 54.0637 30.662C53.2517 31.184 52.7297 32.866 52.7297 34.374C52.7297 35.418 52.9617 36.346 53.5997 36.752C55.9777 38.376 59.8637 32.228 60.3277 30.14C60.5017 29.328 62.5317 30.372 62.4157 31.242C62.3577 31.648 62.2997 32.576 62.2997 33.62C62.5317 35.012 62.9377 36.404 64.5617 36.578C68.5637 36.404 72.0437 33.33 73.9577 31.416C74.4797 30.72 74.4217 32.46 73.7257 33.562C72.5657 35.36 69.6077 38.492 65.6057 38.26C63.3437 38.26 61.5457 36.868 60.7337 34.954C59.5737 36.636 57.8917 38.666 55.5137 38.666Z" fill="black"/>
<path d="M17.98 55.08V55.022C13.862 53.398 11.02 50.382 9.164 46.728C6.96 42.552 6.206 37.506 6.206 32.692V31.764L5.684 31.3C4.64 29.966 3.654 28.458 2.784 26.776C2.61 26.196 2.262 25.674 2.03 25.036C1.044 22.658 0.638 20.338 0.638 18.134C0.638 8.85398 8.41 1.60397 17.806 1.02397C32.712 0.211975 38.802 12.45 40.368 23.992C40.426 25.036 40.484 26.254 40.484 27.53C40.484 30.198 40.31 33.214 39.788 35.418L39.498 36.52L40.252 36.404C44.486 35.302 50.518 32.924 52.78 31.532C53.65 31.01 52.258 33.33 50.982 34.258C48.372 35.824 44.95 37.622 39.846 38.84L38.918 39.072L38.686 40C37.816 42.726 36.482 44.93 34.974 47.134C31.9 51.832 27.55 55.428 22.272 55.602C20.88 55.602 19.546 55.428 17.98 55.08ZM37.004 37.1L37.41 35.882C37.99 33.562 38.28 30.372 38.28 27.472C38.28 26.022 38.222 24.63 38.048 23.47C36.888 12.798 31.842 2.12597 18.444 2.76398C10.092 3.16997 2.668 10.072 2.668 18.83C2.668 20.86 3.074 23.006 3.944 25.21C4.524 26.428 5.162 27.588 5.8 28.69L6.322 29.386L6.38 29.038C6.786 24.862 7.714 20.86 9.164 17.786C10.73 14.306 13.05 11.58 16.008 11.348C16.53 11.29 17.11 11.638 17.4 12.102C17.748 12.508 17.516 13.03 16.878 13.03C14.79 13.262 12.702 15.292 11.136 18.888C9.454 22.31 8.584 26.834 8.352 31.532V31.764L9.222 32.692C13.804 36.81 20.3 38.202 26.448 38.202C27.028 38.26 27.666 38.26 28.304 38.26C31.32 38.144 34.336 37.68 37.004 37.1ZM33.06 45.974C34.104 44.524 34.858 42.9 35.612 41.218L36.308 39.652L34.568 39.826C32.886 40.116 30.914 40.29 29.116 40.348C28.42 40.406 27.84 40.406 27.202 40.348C22.272 40.348 17.052 39.072 12.528 36.636C11.078 35.94 9.628 35.07 8.468 34.026L8.294 33.852L8.41 35.186C8.468 39.42 9.512 43.364 11.136 46.612C12.644 49.57 14.732 51.948 17.516 53.224L18.154 53.456C19.198 53.746 20.3 53.92 21.46 53.862C25.81 53.746 29.986 50.73 33.06 45.974Z" fill="black"/>
</svg>
