<?xml version="1.0" encoding="UTF-8" standalone="no"?>
<!DOCTYPE svg PUBLIC "-//W3C//DTD SVG 1.1//EN" "http://www.w3.org/Graphics/SVG/1.1/DTD/svg11.dtd">
<svg width="100%" height="100%" viewBox="0 0 122 76" version="1.1" xmlns="http://www.w3.org/2000/svg" xmlns:xlink="http://www.w3.org/1999/xlink" xml:space="preserve" xmlns:serif="http://www.serif.com/" style="fill-rule:evenodd;clip-rule:evenodd;stroke-linejoin:round;stroke-miterlimit:2;">
    <path d="M100.809,50.293C99.609,49.013 99.049,46.293 99.049,43.653C99.049,41.173 99.529,38.693 100.409,37.333C100.489,36.933 101.289,36.853 102.249,37.093C103.129,37.413 103.609,38.053 103.529,38.453C102.889,39.093 101.289,48.133 102.489,49.173C103.129,49.653 103.929,49.893 104.809,49.893C109.769,49.893 118.249,43.493 120.649,41.093C120.969,40.773 121.769,41.253 120.809,43.013C119.289,45.813 112.009,52.133 106.489,52.373C104.489,52.453 102.329,51.973 100.809,50.293ZM102.489,31.733C101.529,31.413 101.049,30.693 101.449,30.373C101.609,30.133 102.169,28.533 102.329,28.133L102.489,26.933C102.489,26.453 103.369,26.293 104.169,26.613C105.209,26.853 105.849,27.493 105.689,27.893C105.689,28.213 105.689,28.773 105.449,29.253C105.289,29.653 104.649,31.413 104.409,31.813C104.169,32.133 103.209,32.133 102.489,31.733Z" style="fill-rule:nonzero;"/>
    <path d="M75.691,51.973C73.051,51.973 70.331,49.893 69.451,47.173C69.131,46.213 68.971,45.173 68.971,44.133C68.971,42.853 69.211,41.493 69.851,40.373C70.251,39.573 70.731,38.853 71.451,38.613C72.091,38.453 72.971,38.853 73.611,39.573C74.251,40.213 74.091,40.693 73.691,40.933C72.571,41.653 71.851,43.973 71.851,46.053C71.851,47.493 72.171,48.773 73.051,49.333C76.331,51.573 81.691,43.093 82.331,40.213C82.571,39.093 85.371,40.533 85.211,41.733C85.131,42.293 85.051,43.573 85.051,45.013C85.371,46.933 85.931,48.853 88.171,49.093C93.691,48.853 98.491,44.613 101.131,41.973C101.851,41.013 101.771,43.413 100.811,44.933C99.211,47.413 95.131,51.733 89.611,51.413C86.491,51.413 84.011,49.493 82.891,46.853C81.291,49.173 78.971,51.973 75.691,51.973Z" style="fill-rule:nonzero;"/>
    <path d="M23.92,74.613L23.92,74.533C18.24,72.293 14.32,68.133 11.76,63.093C8.72,57.333 7.68,50.373 7.68,43.733L7.68,42.453L6.96,41.813C5.52,39.973 4.16,37.893 2.96,35.573C2.72,34.773 2.24,34.053 1.92,33.173C0.56,29.893 0,26.693 0,23.653C0,10.853 10.72,0.853 23.68,0.053C44.24,-1.067 52.64,15.813 54.8,31.733C54.88,33.173 54.96,34.853 54.96,36.613C54.96,40.293 54.72,44.453 54,47.493L53.6,49.013L54.64,48.853C60.48,47.333 68.8,44.053 71.92,42.133C73.12,41.413 71.2,44.613 69.44,45.893C65.84,48.053 61.12,50.533 54.08,52.213L52.8,52.533L52.48,53.813C51.28,57.573 49.44,60.613 47.36,63.653C43.12,70.133 37.12,75.093 29.84,75.333C27.92,75.333 26.08,75.093 23.92,74.613ZM50.16,49.813L50.72,48.133C51.52,44.933 51.92,40.533 51.92,36.533C51.92,34.533 51.84,32.613 51.6,31.013C50,16.293 43.04,1.573 24.56,2.453C13.04,3.013 2.8,12.533 2.8,24.613C2.8,27.413 3.36,30.373 4.56,33.413C5.36,35.093 6.24,36.693 7.12,38.213L7.84,39.173L7.92,38.693C8.48,32.933 9.76,27.413 11.76,23.173C13.92,18.373 17.12,14.613 21.2,14.293C21.92,14.213 22.72,14.693 23.12,15.333C23.6,15.893 23.28,16.613 22.4,16.613C19.52,16.933 16.64,19.733 14.48,24.693C12.16,29.413 10.96,35.653 10.64,42.133L10.64,42.453L11.84,43.733C18.16,49.413 27.12,51.333 35.6,51.333C36.4,51.413 37.28,51.413 38.16,51.413C42.32,51.253 46.48,50.613 50.16,49.813ZM44.72,62.053C46.16,60.053 47.2,57.813 48.24,55.493L49.2,53.333L46.8,53.573C44.48,53.973 41.76,54.213 39.28,54.293C38.32,54.373 37.52,54.373 36.64,54.293C29.84,54.293 22.64,52.533 16.4,49.173C14.4,48.213 12.4,47.013 10.8,45.573L10.56,45.333L10.72,47.173C10.8,53.013 12.24,58.453 14.48,62.933C16.56,67.013 19.44,70.293 23.28,72.053L24.16,72.373C25.6,72.773 27.12,73.013 28.72,72.933C34.72,72.773 40.48,68.613 44.72,62.053Z" style="fill-rule:nonzero;"/>
</svg>
