<?xml version="1.0" encoding="UTF-8" standalone="no"?>
<!DOCTYPE svg PUBLIC "-//W3C//DTD SVG 1.1//EN" "http://www.w3.org/Graphics/SVG/1.1/DTD/svg11.dtd">
<svg width="100%" height="100%" viewBox="0 0 64 26" version="1.1" xmlns="http://www.w3.org/2000/svg" xmlns:xlink="http://www.w3.org/1999/xlink" xml:space="preserve" xmlns:serif="http://www.serif.com/" style="fill-rule:evenodd;clip-rule:evenodd;stroke-linejoin:round;stroke-miterlimit:2;">
    <path d="M13.058,25.489C10.968,25.489 9.117,25.198 7.504,24.618C5.89,24.038 4.527,23.202 3.412,22.111C2.298,21.02 1.451,19.685 0.871,18.107C0.29,16.528 0,14.741 0,12.744C0,10.748 0.29,8.96 0.871,7.382C1.451,5.803 2.298,4.468 3.412,3.378C4.527,2.286 5.89,1.451 7.504,0.871C9.117,0.29 10.968,0 13.058,0C15.147,0 16.998,0.29 18.612,0.871C20.225,1.451 21.589,2.286 22.703,3.378C23.817,4.468 24.665,5.803 25.245,7.382C25.825,8.96 26.115,10.748 26.115,12.744C26.115,14.741 25.825,16.528 25.245,18.107C24.665,19.685 23.817,21.02 22.703,22.111C21.589,23.202 20.225,24.038 18.612,24.618C16.998,25.198 15.147,25.489 13.058,25.489ZM13.058,17.201C14.079,17.201 14.886,16.807 15.478,16.017C16.07,15.228 16.366,14.137 16.366,12.744C16.366,11.352 16.07,10.26 15.478,9.471C14.886,8.682 14.079,8.287 13.058,8.287C12.036,8.287 11.23,8.682 10.638,9.471C10.046,10.26 9.75,11.352 9.75,12.744C9.75,14.137 10.046,15.228 10.638,16.017C11.23,16.807 12.036,17.201 13.058,17.201Z" style="fill:rgb(211,134,106);fill-rule:nonzero;"/>
    <path d="M40.078,25.489C36.132,25.489 33.137,24.531 31.095,22.616C29.052,20.701 28.031,17.747 28.031,13.754L28.031,5.049C28.031,3.54 28.443,2.344 29.267,1.462C30.091,0.58 31.327,0.139 32.975,0.139C34.693,0.139 35.958,0.58 36.77,1.462C37.583,2.344 37.989,3.54 37.989,5.049L37.989,14.207C37.989,16.226 38.628,17.236 39.904,17.236C41.181,17.236 41.819,16.226 41.819,14.207L41.819,5.049C41.819,3.54 42.22,2.344 43.021,1.462C43.822,0.58 45.058,0.139 46.729,0.139C48.4,0.139 49.66,0.58 50.507,1.462C51.355,2.344 51.778,3.54 51.778,5.049L51.778,13.754C51.778,17.747 50.751,20.701 48.696,22.616C46.642,24.531 43.769,25.489 40.078,25.489Z" style="fill:rgb(211,134,106);fill-rule:nonzero;"/>
    <path d="M59.021,25.315C57.349,25.315 56.102,24.868 55.278,23.974C54.454,23.08 54.041,21.879 54.041,20.37L54.041,5.049C54.041,3.54 54.454,2.344 55.278,1.462C56.102,0.58 57.349,0.139 59.021,0.139C60.692,0.139 61.94,0.58 62.764,1.462C63.588,2.344 64,3.54 64,5.049L64,20.37C64,21.879 63.588,23.08 62.764,23.974C61.94,24.868 60.692,25.315 59.021,25.315Z" style="fill:rgb(211,134,106);fill-rule:nonzero;"/>
</svg>
